<?xml version="1.0" encoding="UTF-8"?>
<svg id="Camada_1" data-name="Camada 1" xmlns="http://www.w3.org/2000/svg" viewBox="0 0 64.37 64.36">
  <defs>
    <style>
      .cls-1 {
        fill: #fff;
      }
    </style>
  </defs>
  <path class="cls-1" d="M62.72,28.84c-.72.19-.84-.3-1.26-.62-.63-.49-5.47-5.3-5.64-5.66-.86-1.9.24-6.83-2.31-8.99C39.96-1.44,28.08,22.31,18.09,29.64c-.78.14-5.75-5.27-5.53-6.4L31.37,4.39c17.23-12.83,39.25,4.63,31.35,24.45Z"/>
  <path class="cls-1" d="M35.52,62.73c-.19-.72.3-.84.62-1.26.49-.63,5.3-5.47,5.66-5.64,1.08-.49,3.6-.18,5.29-.57,7.83-1.81,11.23-12.2,6.18-18.44l-18.56-18.72c-.14-.78,5.27-5.75,6.4-5.53l18.86,18.81c12.87,17.27-4.65,39.15-24.45,31.35Z"/>
  <path class="cls-1" d="M28.82,1.64c.19.72-.3.84-.62,1.26-.49.63-5.3,5.47-5.66,5.64-1.9.86-6.83-.24-8.99,2.31-14.93,13.59,8.7,25.41,16.08,35.42.14.78-5.27,5.75-6.4,5.53L4.37,32.99C-8.32,15.68,8.97-6.18,28.82,1.64Z"/>
  <path class="cls-1" d="M1.62,35.53c.72-.19.84.3,1.26.62.63.49,5.47,5.3,5.64,5.66.49,1.08.18,3.6.57,5.29,1.81,7.85,12.12,11.19,18.45,6.19l18.71-18.56c.69-.12,5.75,5.03,5.52,6.4l-18.8,18.86C15.67,72.72-6.16,55.4,1.62,35.53Z"/>
</svg>